<svg width="365" height="96" viewBox="0 0 365 96" fill="none" xmlns="http://www.w3.org/2000/svg">
<rect width="365" height="96" rx="10" fill="url(#paint0_linear_102_1270)"/>
<path d="M137.062 65.2968H137.136L139.461 68.353L141.77 65.2968H141.851V70.6196H141.336V67.1459C141.336 66.9056 141.359 66.5433 141.359 66.5433C141.252 66.7333 141.133 66.9164 141.005 67.0917L139.489 69.1033H139.401L137.908 67.0917C137.779 66.9155 137.659 66.7323 137.547 66.5433C137.547 66.5433 137.577 66.9056 137.577 67.1459V70.6196H137.062V65.2968Z" fill="#1E1E1E"/>
<path d="M143.981 67.9691C143.976 66.8919 144.622 65.9181 145.616 65.5026C146.611 65.0871 147.757 65.3126 148.52 66.0737C149.283 66.8348 149.512 67.9809 149.1 68.9763C148.687 69.9718 147.716 70.6207 146.638 70.6187C145.929 70.6364 145.244 70.3627 144.742 69.8625C144.24 69.3623 143.965 68.678 143.981 67.9691ZM148.732 67.9691C148.732 66.7354 147.848 65.8147 146.638 65.8147C145.435 65.8147 144.552 66.7354 144.552 67.9691C144.552 69.2028 145.435 70.1234 146.638 70.1234C147.848 70.1234 148.732 69.2028 148.732 67.9691Z" fill="#1E1E1E"/>
<path d="M151.431 65.2968H153.262C154.268 65.2968 154.744 65.8836 154.744 66.6033C154.744 67.1281 154.506 67.5121 154.047 67.6608C154.714 67.7908 155.185 68.3825 155.156 69.0541C155.156 69.9392 154.6 70.6196 153.452 70.6196H151.431V65.2968ZM153.301 67.4728C153.926 67.4728 154.173 67.1203 154.173 66.6348C154.173 66.1494 153.912 65.7979 153.222 65.7979H152.003V67.4728H153.301ZM153.413 70.1184C154.237 70.1184 154.577 69.6557 154.577 69.0383C154.577 68.4111 154.204 67.9582 153.381 67.9582H152.003V70.1184H153.413Z" fill="#1E1E1E"/>
<path d="M157.286 65.2968H157.818V70.6196H157.286V65.2968Z" fill="#1E1E1E"/>
<path d="M159.946 65.2968H160.532V70.1184H163.141V70.6196H159.946V65.2968Z" fill="#1E1E1E"/>
<path d="M165.269 65.2968H168.358V65.7979H165.807V68.2949H168.082V68.7872H165.807V70.1184H168.463V70.6196H165.269V65.2968Z" fill="#1E1E1E"/>
<path d="M173.785 65.2968H175.104C176.916 65.2968 178.043 66.3454 178.043 67.9582C178.043 69.57 176.925 70.6196 175.104 70.6196H173.785V65.2968ZM175.063 70.1105C176.669 70.1105 177.435 69.2264 177.435 67.9582C177.435 66.69 176.669 65.8058 175.063 65.8058H174.36V70.1105H175.063Z" fill="#1E1E1E"/>
<path d="M179.64 67.9691C179.635 66.8919 180.281 65.9181 181.275 65.5026C182.27 65.0871 183.416 65.3126 184.179 66.0737C184.942 66.8348 185.171 67.9809 184.759 68.9763C184.346 69.9718 183.374 70.6207 182.297 70.6187C181.588 70.6364 180.903 70.3627 180.401 69.8625C179.899 69.3623 179.624 68.678 179.64 67.9691ZM184.39 67.9691C184.39 66.7354 183.507 65.8147 182.297 65.8147C181.094 65.8147 180.211 66.7354 180.211 67.9691C180.211 69.2028 181.094 70.1234 182.297 70.1234C183.507 70.1234 184.39 69.2028 184.39 67.9691Z" fill="#1E1E1E"/>
<path d="M187.971 66.9381C187.817 66.7619 187.591 66.4547 187.591 66.4547C187.591 66.4547 187.639 66.8229 187.639 67.0454V70.5654H187.09V65.2968H187.189L190.468 68.9782C190.621 69.1535 190.848 69.4607 190.848 69.4607C190.848 69.4607 190.806 69.0925 190.806 68.8699V65.3509H191.348V70.6196H191.251L187.971 66.9381Z" fill="#1E1E1E"/>
<path d="M195.009 65.2968H195.096L197.202 70.6196H196.646L196.311 69.7354H193.795L193.465 70.6196H192.945L195.009 65.2968ZM196.121 69.2559L195.242 66.9164C195.147 66.6683 195.052 66.2892 195.052 66.2892C195.052 66.2892 194.949 66.6683 194.855 66.9164L193.977 69.2559H196.121Z" fill="#1E1E1E"/>
<path d="M199.856 65.7979H198.267V65.2968H201.992V65.7979H200.403V70.6196H199.856V65.7979Z" fill="#1E1E1E"/>
<path d="M204.122 65.2968H204.654V70.6196H204.122V65.2968Z" fill="#1E1E1E"/>
<path d="M206.784 67.9691C206.779 66.8919 207.425 65.9181 208.419 65.5026C209.413 65.0871 210.56 65.3126 211.323 66.0737C212.086 66.8348 212.315 67.9799 211.903 68.9754C211.49 69.9708 210.518 70.6197 209.441 70.6187C208.732 70.6364 208.047 70.3627 207.545 69.8625C207.043 69.3623 206.768 68.678 206.784 67.9691ZM211.534 67.9691C211.534 66.7354 210.651 65.8147 209.441 65.8147C208.238 65.8147 207.356 66.7354 207.356 67.9691C207.356 69.2028 208.238 70.1234 209.441 70.1234C210.651 70.1234 211.534 69.2028 211.534 67.9691Z" fill="#1E1E1E"/>
<path d="M215.115 66.9381C214.962 66.7619 214.735 66.4547 214.735 66.4547C214.735 66.4547 214.784 66.8229 214.784 67.0454V70.5654H214.234V65.2968H214.331L217.61 68.9782C217.765 69.1535 217.99 69.4607 217.99 69.4607C217.99 69.4607 217.951 69.0925 217.951 68.8699V65.3509H218.492V70.6196H218.394L215.115 66.9381Z" fill="#1E1E1E"/>
<path d="M220.62 69.5641L221.048 69.3189C221.273 69.8339 221.765 70.1539 222.296 70.1302C222.859 70.1302 223.301 69.7935 223.301 69.2431C223.301 68.7153 222.995 68.4475 222.389 68.1581L222.004 67.9661C221.313 67.6303 220.934 67.2709 220.934 66.5443C220.934 65.795 221.484 65.2987 222.211 65.2987C222.75 65.2712 223.257 65.5734 223.522 66.0785L223.109 66.3533C222.934 65.9968 222.586 65.7773 222.211 65.7881C221.733 65.7881 221.441 66.0854 221.441 66.5295C221.441 66.9873 221.669 67.1951 222.211 67.4619L222.596 67.6529C223.4 68.035 223.814 68.4633 223.814 69.2431C223.814 70.0997 223.179 70.6196 222.31 70.6196C221.383 70.6196 220.877 70.1145 220.62 69.5641Z" fill="#1E1E1E"/>
<path d="M229.136 65.2968H229.21L231.534 68.353L233.845 65.2968H233.925V70.6196H233.411V67.1459C233.411 66.9056 233.432 66.5433 233.432 66.5433C233.325 66.7333 233.208 66.9164 233.08 67.0917L231.563 69.1033H231.476L229.982 67.0917C229.853 66.9155 229.733 66.7323 229.622 66.5433C229.622 66.5433 229.65 66.9056 229.65 67.1459V70.6196H229.136V65.2968Z" fill="#1E1E1E"/>
<path d="M238.119 65.2968H238.207L240.313 70.6196H239.756L239.422 69.7354H236.905L236.575 70.6196H236.055L238.119 65.2968ZM239.232 69.2559L238.352 66.9164C238.279 66.7107 238.215 66.5019 238.162 66.2892C238.162 66.2892 238.059 66.6683 237.964 66.9164L237.088 69.2559H239.232Z" fill="#1E1E1E"/>
<path d="M242.442 65.2968H243.76C245.573 65.2968 246.7 66.3454 246.7 67.9582C246.7 69.57 245.581 70.6196 243.76 70.6196H242.442V65.2968ZM243.72 70.1105C245.326 70.1105 246.092 69.2264 246.092 67.9582C246.092 66.69 245.326 65.8058 243.72 65.8058H243.017V70.1105H243.72Z" fill="#1E1E1E"/>
<path d="M248.828 65.2968H251.918V65.7979H249.364V68.2949H251.642V68.7872H249.364V70.1184H252.022V70.6196H248.828V65.2968Z" fill="#1E1E1E"/>
<path d="M256.812 65.2968H259.902V65.7979H257.349V68.2949H259.626V68.7872H257.349V70.1184H260.006V70.6196H256.812V65.2968Z" fill="#1E1E1E"/>
<path d="M264.197 65.2968H264.286L266.392 70.6196H265.836L265.499 69.7354H262.983L262.655 70.6196H262.135L264.197 65.2968ZM265.31 69.2559L264.432 66.9164C264.358 66.7107 264.295 66.5019 264.242 66.2892C264.242 66.2892 264.139 66.6683 264.045 66.9164L263.166 69.2559H265.31Z" fill="#1E1E1E"/>
<path d="M267.988 69.5641L268.416 69.3189C268.641 69.8339 269.133 70.1539 269.663 70.1302C270.226 70.1302 270.668 69.7935 270.668 69.2431C270.668 68.7154 270.361 68.4475 269.756 68.1581L269.372 67.9661C268.68 67.6303 268.302 67.2709 268.302 66.5443C268.302 65.795 268.851 65.2987 269.577 65.2987C270.117 65.2722 270.625 65.5735 270.89 66.0786L270.476 66.3533C270.301 65.9968 269.953 65.7783 269.577 65.7881C269.1 65.7881 268.809 66.0855 268.809 66.5295C268.809 66.9874 269.036 67.1951 269.577 67.4619L269.963 67.653C270.769 68.035 271.182 68.4633 271.182 69.2431C271.182 70.0997 270.547 70.6196 269.677 70.6196C268.751 70.6196 268.244 70.1145 267.988 69.5641Z" fill="#1E1E1E"/>
<path d="M274.656 68.9517L272.778 65.2968H273.37L274.72 67.9424C274.805 68.1157 274.877 68.2959 274.933 68.482C274.994 68.2979 275.066 68.1177 275.145 67.9424L276.487 65.2968H277.036L275.197 68.929V70.6196H274.656V68.9517Z" fill="#1E1E1E"/>
<path d="M185.493 56.0473L194.974 47.4664C195.94 46.5635 197.147 45.5198 197.147 44.0262C197.147 42.3592 195.733 41.351 194.147 41.351C192.252 41.351 191.113 42.7068 190.976 44.4781L185.803 44.0961C186.115 39.0233 189.63 36.5569 194.422 36.5569C198.869 36.5569 202.318 39.0243 202.318 43.9573C202.318 47.1189 200.973 48.9256 199.111 50.5581L191.699 56.9857H202.525V61.572H185.493V56.0473Z" fill="url(#paint1_linear_102_1270)"/>
<path d="M149.303 36.5579H129.61V41.3293H136.713V61.0393H142.2V41.3293H149.303V36.5579Z" fill="#1E1E1E"/>
<path d="M167.997 44.54H162.247L159.39 49.1658L156.429 44.54H150.336L155.912 52.4603L149.303 61.5719H155.328L159.252 55.8946L162.901 61.5719H168.995L162.558 52.4603L167.997 44.54Z" fill="#1E1E1E"/>
<path d="M177.655 39.2183H172.374V44.2319H168.995V48.4106H172.374V56.453C172.374 60.1443 175.085 61.571 178.605 61.571C179.837 61.571 181.139 61.4676 182.301 61.0501V56.6962C181.843 57.1146 180.718 57.1845 180.154 57.1845C177.866 57.1845 177.655 55.8612 177.655 54.0505V48.4106H182.301V44.2319H177.655V39.2183Z" fill="#1E1E1E"/>
<path d="M219.051 51.7987H223.431V55.8297C222.431 56.3909 220.706 57.0565 218.361 57.0565C213.774 57.0565 210.773 53.6911 210.773 49.0644C210.773 44.4377 213.774 41.0723 218.361 41.0723C221.086 41.0723 222.845 41.8787 224.292 43.4216L228.087 39.2143C225.638 36.9005 222.223 36.0251 218.361 36.0251C210.739 36.0251 205.186 41.1077 205.186 49.0644C205.186 57.0221 210.739 62.1037 218.361 62.1037C221.948 62.1037 225.431 61.4036 228.604 59.7209V46.7506H219.051V51.7987Z" fill="#1E1E1E"/>
<path d="M235.258 36.0251C234.074 36.0251 233.006 36.738 232.553 37.8319C232.1 38.9258 232.349 40.1851 233.186 41.0221C234.023 41.859 235.282 42.1101 236.376 41.6571C237.47 41.2042 238.184 40.1359 238.184 38.9524C238.183 37.3367 236.873 36.0271 235.258 36.0251Z" fill="#1E1E1E"/>
<path d="M232.861 44.54H238.184V61.5719H232.861V44.54Z" fill="#1E1E1E"/>
<path d="M250.275 56.1043H250.205L245.936 44.54H240.313L247.29 61.5719H252.807L259.473 44.54H254.231L250.275 56.1043Z" fill="#1E1E1E"/>
<path d="M278.101 52.7902C278.101 47.4526 274.998 44.0084 270.061 44.0084C264.77 44.0084 260.538 47.4526 260.538 52.7902C260.538 58.1288 264.77 61.572 270.061 61.572C272.811 61.572 275.597 60.3668 277.291 58.2666L273.587 55.6141C272.705 56.7848 271.542 57.6463 269.813 57.6463C267.768 57.6463 266.251 56.3722 265.828 54.4089H278.101V52.7902ZM265.828 50.8958C265.969 49.2771 267.238 47.7273 269.566 47.7273C270.432 47.7076 271.269 48.0355 271.882 48.6341C272.496 49.2328 272.832 50.049 272.811 50.8958H265.828Z" fill="#1E1E1E"/>
<path d="M119.091 31.6888L118.363 32.4086C118.369 32.4726 118.373 32.5356 118.373 32.6006V66.0194C118.373 67.2226 117.47 68.2052 116.367 68.2052H109.835V74.5511L100.965 68.2052H92.8232C91.7204 68.2052 90.8175 67.2226 90.8175 66.0194V32.6006C90.8175 32.5356 90.8225 32.4706 90.8274 32.4066L89.5031 31.098L86.948 28.5735C86.6516 29.2735 86.499 30.0248 86.5 30.783V71.8099C86.5 73.3292 87.1105 74.7864 88.1975 75.8606C89.2845 76.9349 90.7585 77.5384 92.2964 77.5384H116.894C118.432 77.5384 119.906 76.9349 120.993 75.8606C122.08 74.7864 122.691 73.3292 122.691 71.8099V30.783C122.692 30.0248 122.539 29.2735 122.243 28.5735L119.688 31.098L119.091 31.6888Z" fill="#1E1E1E"/>
<path d="M101.402 48.7986H114.708V50.3956H101.402V48.7986Z" fill="#BFBFBF"/>
<path d="M94.4833 52.8788H114.707V54.4758H94.4833V52.8788Z" fill="#BFBFBF"/>
<path d="M94.4833 56.9591H114.707V58.5561H94.4833V56.9591Z" fill="#BFBFBF"/>
<path d="M94.4833 61.0393H114.707V62.6364H94.4833V61.0393Z" fill="#BFBFBF"/>
<path d="M108.1 37.2903C107.62 36.8197 106.967 36.5558 106.288 36.5568C105.608 36.5577 104.957 36.8226 104.477 37.2942L104.328 37.4419L104.178 37.2942C103.53 36.6602 102.586 36.413 101.701 36.6464C100.817 36.8797 100.127 37.5581 99.8918 38.4246C99.6564 39.291 99.9105 40.2156 100.559 40.8487L100.71 40.9954L104.337 44.54L108.105 40.8389C108.585 40.3672 108.855 39.7292 108.854 39.0636C108.853 38.398 108.582 37.76 108.1 37.2903Z" fill="url(#paint2_linear_102_1270)"/>
<path d="M98.2514 34.429C101.833 31.1818 107.355 31.1808 110.938 34.4271L114.176 31.2507C113.637 30.7525 113.058 30.2976 112.447 29.889C107.711 26.7175 101.48 26.7175 96.7439 29.889C96.1325 30.2976 95.5535 30.7525 95.015 31.2507L98.2514 34.429Z" fill="#BFBFBF"/>
<path d="M120.03 24.8842C111.275 16.321 97.3839 16.321 88.6287 24.8842L91.751 28.0419C98.7821 21.2234 109.878 21.2234 116.909 28.0419L120.03 24.8842Z" fill="#BFBFBF"/>
<defs>
<linearGradient id="paint0_linear_102_1270" x1="0" y1="48" x2="365" y2="48" gradientUnits="userSpaceOnUse">
<stop stop-color="#FDF6E9"/>
<stop offset="1" stop-color="#F4DBAF"/>
</linearGradient>
<linearGradient id="paint1_linear_102_1270" x1="-4986.69" y1="-9479.45" x2="182.501" y2="47.9998" gradientUnits="userSpaceOnUse">
<stop stop-color="#E0345C"/>
<stop offset="0.5" stop-color="#E8515C"/>
<stop offset="1" stop-color="#F06E5C"/>
</linearGradient>
<linearGradient id="paint2_linear_102_1270" x1="-1733.36" y1="-2822.03" x2="182.499" y2="48.0006" gradientUnits="userSpaceOnUse">
<stop stop-color="#E0345C"/>
<stop offset="0.5" stop-color="#E8515C"/>
<stop offset="1" stop-color="#F06E5C"/>
</linearGradient>
</defs>
</svg>
