<svg width="100" height="28" viewBox="0 0 100 28" fill="none" xmlns="http://www.w3.org/2000/svg">
<circle cx="88.0824" cy="12.9044" r="11.9178" fill="#3A8126"/>
<path d="M89.9602 17.8226C89.2551 18.1007 88.5344 18.277 87.798 18.3515C87.0668 18.4141 86.4412 18.3712 85.9213 18.2229L86.009 16.3917C86.5018 16.5213 87.0452 16.5672 87.6389 16.5293C88.2326 16.4915 88.7928 16.3687 89.3196 16.1609C89.9058 15.9297 90.3055 15.6739 90.5189 15.3934C90.7288 15.1044 90.7769 14.8155 90.6629 14.5267C90.5792 14.3143 90.4255 14.1736 90.202 14.1047C89.9836 14.0239 89.726 13.993 89.4291 14.012C89.1407 14.0275 88.7556 14.0715 88.2736 14.1438C87.5303 14.2504 86.9102 14.3085 86.4132 14.318C85.9163 14.3274 85.4403 14.2158 84.9852 13.9829C84.5387 13.7467 84.1981 13.3313 83.9635 12.7366C83.7591 12.2184 83.715 11.6959 83.8312 11.169C83.944 10.6337 84.2322 10.1322 84.6957 9.6647C85.1677 9.19383 85.8115 8.79755 86.6271 8.47587C87.1963 8.25136 87.7795 8.09985 88.3768 8.02132C88.9742 7.9428 89.527 7.95054 90.0353 8.04457L90.0164 9.8633C89.008 9.72108 88.0918 9.81248 87.2677 10.1375C86.69 10.3654 86.2979 10.628 86.0913 10.9255C85.8931 11.2196 85.8544 11.5196 85.975 11.8255C86.0956 12.1313 86.3433 12.2987 86.7179 12.3276C87.0977 12.3447 87.6432 12.2965 88.3543 12.1829C89.0976 12.0762 89.7177 12.0182 90.2146 12.0087C90.7116 11.9992 91.1816 12.1083 91.6249 12.336C92.0766 12.5603 92.4197 12.9698 92.6543 13.5645C92.8553 14.0742 92.8952 14.5984 92.7739 15.1372C92.6577 15.664 92.3636 16.1629 91.8916 16.6337C91.4196 17.1046 90.7758 17.5009 89.9602 17.8226Z" fill="white"/>
<circle cx="62.8768" cy="15.9181" r="11.9178" fill="#EB3668"/>
<path d="M58.7495 10.9888L63.105 11.0648C64.146 11.083 65.0601 11.2999 65.8475 11.7155C66.6442 12.1222 67.2554 12.69 67.6811 13.419C68.1159 14.1482 68.3249 14.9921 68.3082 15.9509C68.2915 16.9096 68.0531 17.7458 67.5931 18.4593C67.1422 19.173 66.5115 19.7238 65.701 20.1115C64.8997 20.4903 63.9786 20.6706 62.9377 20.6524L58.5822 20.5764L58.7495 10.9888ZM62.8599 18.8288C63.8187 18.8456 64.5857 18.5941 65.1611 18.0744C65.7457 17.5457 66.046 16.8248 66.062 15.9117C66.0779 14.9986 65.8029 14.2722 65.2369 13.7326C64.6802 13.1839 63.9224 12.9013 62.9637 12.8845L60.9366 12.8492L60.8328 18.7935L62.8599 18.8288Z" fill="white"/>
<circle cx="37.3973" cy="12.0821" r="11.9178" fill="#EE722F"/>
<path d="M36.2053 7.50691H38.4245V17.0959H36.2053V7.50691Z" fill="white"/>
<circle cx="11.9178" cy="14.2745" r="11.9178" fill="#5ACEFA"/>
<path d="M11.4289 15.594L10.3671 17.1213L10.7464 19.5162L8.56807 19.8612L7.06802 10.3902L9.24634 10.0452L9.94708 14.4695L13.4406 9.38086L15.876 8.99513L12.6209 13.8379L17.6061 18.4297L15.0489 18.8347L11.4289 15.594Z" fill="white"/>
</svg>
