<svg width="188" height="159" viewBox="0 0 188 159" fill="none" xmlns="http://www.w3.org/2000/svg">
<path d="M8.99998 69.1038H0.143982V66.7998H20.52V69.1038H11.664V91.9998H8.99998V69.1038Z" fill="black"/>
<path d="M59.9839 91.9998L54.2239 83.8998C53.5759 83.9718 52.9039 84.0078 52.2079 84.0078H45.4399V91.9998H42.7759V66.7998H52.2079C55.4239 66.7998 57.9439 67.5678 59.7679 69.1038C61.5919 70.6398 62.5039 72.7518 62.5039 75.4398C62.5039 77.4078 61.9999 79.0758 60.9919 80.4438C60.0079 81.7878 58.5919 82.7598 56.7439 83.3598L62.8999 91.9998H59.9839ZM52.1359 81.7398C54.6319 81.7398 56.5399 81.1878 57.8599 80.0838C59.1799 78.9798 59.8399 77.4318 59.8399 75.4398C59.8399 73.3998 59.1799 71.8398 57.8599 70.7598C56.5399 69.6558 54.6319 69.1038 52.1359 69.1038H45.4399V81.7398H52.1359Z" fill="black"/>
<path d="M96.9435 92.2158C93.6795 92.2158 91.1355 91.2798 89.3115 89.4078C87.4875 87.5358 86.5755 84.8118 86.5755 81.2358V66.7998H89.2395V81.1278C89.2395 84.0558 89.8995 86.2398 91.2195 87.6798C92.5395 89.1198 94.4475 89.8398 96.9435 89.8398C99.4635 89.8398 101.383 89.1198 102.703 87.6798C104.023 86.2398 104.683 84.0558 104.683 81.1278V66.7998H107.275V81.2358C107.275 84.8118 106.363 87.5358 104.539 89.4078C102.739 91.2798 100.207 92.2158 96.9435 92.2158Z" fill="black"/>
<path d="M151.123 89.6958V91.9998H133.303V66.7998H150.583V69.1038H135.967V78.0678H148.999V80.3358H135.967V89.6958H151.123Z" fill="black"/>
<path d="M184 79.5C184 121.198 150.197 155 108.5 155C80.8724 155 56.7107 140.161 43.5507 118.018C43.1785 117.391 42.5072 117 41.7787 117C40.242 117 39.2674 118.637 40.0506 119.959C53.8945 143.33 79.3673 159 108.5 159C152.407 159 188 123.407 188 79.5C188 35.5934 152.407 0 108.5 0C79.7955 0 54.6441 15.2128 40.6685 38.0157C39.8583 39.3378 40.8317 41 42.3823 41C43.1001 41 43.7633 40.6201 44.1394 40.0086C57.4233 18.4054 81.2794 4 108.5 4C150.197 4 184 37.8025 184 79.5Z" fill="#E1AF53"/>
</svg>
