<svg width="317" height="56" viewBox="0 0 317 56" fill="none" xmlns="http://www.w3.org/2000/svg">
<path d="M3.56294 24.3386H0.443848V23.5271H7.6203V24.3386H4.50121V32.4026H3.56294V24.3386Z" fill="black"/>
<path d="M21.5195 32.4026L19.4908 29.5497C19.2626 29.5751 19.0259 29.5878 18.7808 29.5878H16.3971V32.4026H15.4588V23.5271H18.7808C19.9135 23.5271 20.801 23.7976 21.4435 24.3386C22.0859 24.8796 22.4071 25.6234 22.4071 26.5701C22.4071 27.2633 22.2296 27.8507 21.8745 28.3325C21.528 28.8059 21.0293 29.1482 20.3784 29.3596L22.5465 32.4026H21.5195ZM18.7555 28.789C19.6345 28.789 20.3065 28.5946 20.7715 28.2057C21.2364 27.8169 21.4688 27.2717 21.4688 26.5701C21.4688 25.8516 21.2364 25.3022 20.7715 24.9218C20.3065 24.533 19.6345 24.3386 18.7555 24.3386H16.3971V28.789H18.7555Z" fill="black"/>
<path d="M34.5368 32.4786C33.3872 32.4786 32.4912 32.149 31.8488 31.4897C31.2063 30.8303 30.8851 29.8709 30.8851 28.6115V23.5271H31.8234V28.5734C31.8234 29.6047 32.0558 30.3739 32.5208 30.8811C32.9857 31.3882 33.6577 31.6418 34.5368 31.6418C35.4243 31.6418 36.1005 31.3882 36.5654 30.8811C37.0303 30.3739 37.2628 29.6047 37.2628 28.5734V23.5271H38.1757V28.6115C38.1757 29.8709 37.8545 30.8303 37.2121 31.4897C36.5781 32.149 35.6863 32.4786 34.5368 32.4786Z" fill="black"/>
<path d="M53.6189 31.5911V32.4026H47.3427V23.5271H53.4287V24.3386H48.281V27.4957H52.8708V28.2945H48.281V31.5911H53.6189Z" fill="black"/>
<path d="M65.1978 28C65.1978 42.6859 53.2926 54.5912 38.6066 54.5912C28.8762 54.5912 20.3664 49.3648 15.7314 41.566C15.6003 41.3454 15.3639 41.2075 15.1073 41.2075C14.5661 41.2075 14.2228 41.784 14.4987 42.2496C19.3745 50.481 28.3461 56 38.6066 56C54.0706 56 66.6066 43.464 66.6066 28C66.6066 12.536 54.0706 0 38.6066 0C28.4969 0 19.6385 5.35796 14.7163 13.3892C14.4309 13.8548 14.7738 14.4403 15.3199 14.4403C15.5727 14.4403 15.8063 14.3065 15.9387 14.0911C20.6174 6.4824 29.0195 1.40881 38.6066 1.40881C53.2926 1.40881 65.1978 13.3141 65.1978 28Z" fill="#E1AF53"/>
<path d="M95.3335 14.4062L84.646 42.1973H83.2749L93.9624 14.4062H95.3335Z" fill="#7281A1"/>
<path d="M117.212 25.09C116.432 25.09 115.682 24.965 114.962 24.715C114.252 24.465 113.702 24.135 113.312 23.725L113.747 22.87C114.127 23.25 114.632 23.56 115.262 23.8C115.892 24.03 116.542 24.145 117.212 24.145C118.152 24.145 118.857 23.975 119.327 23.635C119.797 23.285 120.032 22.835 120.032 22.285C120.032 21.865 119.902 21.53 119.642 21.28C119.392 21.03 119.082 20.84 118.712 20.71C118.342 20.57 117.827 20.42 117.167 20.26C116.377 20.06 115.747 19.87 115.277 19.69C114.807 19.5 114.402 19.215 114.062 18.835C113.732 18.455 113.567 17.94 113.567 17.29C113.567 16.76 113.707 16.28 113.987 15.85C114.267 15.41 114.697 15.06 115.277 14.8C115.857 14.54 116.577 14.41 117.437 14.41C118.037 14.41 118.622 14.495 119.192 14.665C119.772 14.825 120.272 15.05 120.692 15.34L120.317 16.225C119.877 15.935 119.407 15.72 118.907 15.58C118.407 15.43 117.917 15.355 117.437 15.355C116.517 15.355 115.822 15.535 115.352 15.895C114.892 16.245 114.662 16.7 114.662 17.26C114.662 17.68 114.787 18.02 115.037 18.28C115.297 18.53 115.617 18.725 115.997 18.865C116.387 18.995 116.907 19.14 117.557 19.3C118.327 19.49 118.947 19.68 119.417 19.87C119.897 20.05 120.302 20.33 120.632 20.71C120.962 21.08 121.127 21.585 121.127 22.225C121.127 22.755 120.982 23.24 120.692 23.68C120.412 24.11 119.977 24.455 119.387 24.715C118.797 24.965 118.072 25.09 117.212 25.09ZM133.439 15.46H129.749V14.5H138.239V15.46H134.549V25H133.439V15.46ZM154.07 22.195H148.22L146.96 25H145.805L150.605 14.5H151.7L156.5 25H155.33L154.07 22.195ZM153.665 21.295L151.145 15.655L148.625 21.295H153.665ZM175.012 14.5V25H174.097L167.347 16.48V25H166.237V14.5H167.152L173.917 23.02V14.5H175.012ZM186.439 14.5H190.714C191.824 14.5 192.804 14.725 193.654 15.175C194.504 15.615 195.164 16.235 195.634 17.035C196.104 17.825 196.339 18.73 196.339 19.75C196.339 20.77 196.104 21.68 195.634 22.48C195.164 23.27 194.504 23.89 193.654 24.34C192.804 24.78 191.824 25 190.714 25H186.439V14.5ZM190.654 24.04C191.574 24.04 192.379 23.86 193.069 23.5C193.759 23.13 194.294 22.625 194.674 21.985C195.054 21.335 195.244 20.59 195.244 19.75C195.244 18.91 195.054 18.17 194.674 17.53C194.294 16.88 193.759 16.375 193.069 16.015C192.379 15.645 191.574 15.46 190.654 15.46H187.549V24.04H190.654ZM128.732 30.5L125.192 41H124.022L120.947 32.045L117.857 41H116.702L113.162 30.5H114.302L117.332 39.53L120.467 30.5H121.502L124.592 39.575L127.667 30.5H128.732ZM138.767 30.5H139.877V41H138.767V30.5ZM153.333 31.46H149.643V30.5H158.133V31.46H154.443V41H153.333V31.46ZM176.682 30.5V41H175.587V36.155H169.017V41H167.907V30.5H169.017V35.18H175.587V30.5H176.682ZM204.265 41.09C202.905 41.09 201.845 40.7 201.085 39.92C200.325 39.14 199.945 38.005 199.945 36.515V30.5H201.055V36.47C201.055 37.69 201.33 38.6 201.88 39.2C202.43 39.8 203.225 40.1 204.265 40.1C205.315 40.1 206.115 39.8 206.665 39.2C207.215 38.6 207.49 37.69 207.49 36.47V30.5H208.57V36.515C208.57 38.005 208.19 39.14 207.43 39.92C206.68 40.7 205.625 41.09 204.265 41.09ZM223.17 36.065L221.025 38.24V41H219.915V30.5H221.025V36.845L227.19 30.5H228.465L223.92 35.255L228.78 41H227.46L223.17 36.065ZM245.749 41L243.349 37.625C243.079 37.655 242.799 37.67 242.509 37.67H239.689V41H238.579V30.5H242.509C243.849 30.5 244.899 30.82 245.659 31.46C246.419 32.1 246.799 32.98 246.799 34.1C246.799 34.92 246.589 35.615 246.169 36.185C245.759 36.745 245.169 37.15 244.399 37.4L246.964 41H245.749ZM242.479 36.725C243.519 36.725 244.314 36.495 244.864 36.035C245.414 35.575 245.689 34.93 245.689 34.1C245.689 33.25 245.414 32.6 244.864 32.15C244.314 31.69 243.519 31.46 242.479 31.46H239.689V36.725H242.479ZM264.003 38.195H258.153L256.893 41H255.738L260.538 30.5H261.633L266.433 41H265.263L264.003 38.195ZM263.598 37.295L261.078 31.655L258.558 37.295H263.598ZM276.17 30.5H277.28V41H276.17V30.5ZM297.472 30.5V41H296.557L289.807 32.48V41H288.697V30.5H289.612L296.377 39.02V30.5H297.472ZM316.324 40.04V41H308.899V30.5H316.099V31.46H310.009V35.195H315.439V36.14H310.009V40.04H316.324Z" fill="black"/>
<path d="M200.107 14L216.621 13.6793C222.758 13.5602 228.888 14.1474 234.891 15.4296C245.911 17.7833 257.303 17.7833 268.323 15.4296C274.326 14.1474 280.456 13.5602 286.593 13.6793L303.107 14V18L286.593 17.6793C280.456 17.5602 274.326 18.1474 268.323 19.4296C257.303 21.7833 245.911 21.7833 234.891 19.4296C228.888 18.1474 222.758 17.5602 216.621 17.6793L200.107 18V14Z" fill="#3D9BF7"/>
<path d="M200.107 18L216.621 17.6793C222.758 17.5602 228.888 18.1474 234.891 19.4296C245.911 21.7833 257.303 21.7833 268.323 19.4296C274.326 18.1474 280.456 17.5602 286.593 17.6793L303.107 18V22L286.593 21.6793C280.456 21.5602 274.326 22.1474 268.323 23.4296C257.303 25.7833 245.911 25.7833 234.891 23.4296C228.888 22.1474 222.758 21.5602 216.621 21.6793L200.107 22V18Z" fill="#F8E753"/>
</svg>
