<svg width="375" height="228" viewBox="0 0 375 228" fill="none" xmlns="http://www.w3.org/2000/svg">
<path d="M-191.871 116.212C-99.9408 104.571 -106.446 225.603 -20.3367 226.973C65.7726 228.342 19.2669 30.6828 96.9295 33.0127C148.287 34.5534 164.208 2.71177 177.732 1.51343M537.405 71.1884C464.306 108.337 511.898 178.697 435.889 187.427C359.88 196.158 242.613 227.486 211.285 181.436C191.662 152.591 379.909 43.4553 284.555 35.9229C211.493 30.1514 211.114 0.999853 197.932 2.027" stroke="#E1AF53" stroke-width="1.71192" stroke-linecap="round" stroke-dasharray="13.7 6.85"/>
<path d="M192.08 7.29452L188.377 11.001C186.576 12.8303 183.753 12.8303 182.011 11.0885L186.246 6.52975C187.019 5.69814 187.864 4.93725 188.772 4.25617V4.25617C189.686 3.57048 190.66 2.96844 191.683 2.45735L192.543 2.0272M192.141 7.33244L201.631 16.8219C202.476 17.6673 202.439 19.0381 201.594 19.8835C200.748 20.7291 199.377 20.7288 198.532 19.8834M192.148 13.5211L198.54 19.9126C199.385 20.7583 199.348 22.129 198.503 22.9744C197.657 23.82 196.286 23.8199 195.441 22.9743L189.05 16.5827M195.449 23.0036C196.295 23.8491 196.257 25.22 195.412 26.0653C194.567 26.9108 193.196 26.9106 192.35 26.0653M176.302 18.6865L176.011 18.3596C174.163 16.2902 172.847 13.8029 172.174 11.1118L172 10.4156M183.47 1.00005L183.881 1.15438C185.425 1.73322 186.877 2.532 188.192 3.52596L188.77 3.96298M189.607 30.6848C188.762 31.5303 187.391 31.4934 186.545 30.6479C185.7 29.8024 185.7 28.4317 186.545 27.5862L188.694 25.438C189.539 24.5925 190.91 24.6294 191.755 25.4749C192.601 26.3204 192.601 27.6911 191.755 28.5365L189.607 30.6848ZM186.516 27.5939C185.671 28.4395 184.3 28.4026 183.455 27.5571C182.609 26.7116 182.609 25.3407 183.455 24.4953L185.603 22.3472C186.448 21.5016 187.819 21.5386 188.665 22.3839C189.51 23.2295 189.51 24.6003 188.665 25.4458L186.516 27.5939ZM183.426 24.5032C182.58 25.3487 181.209 25.3116 180.364 24.4662C179.518 23.6206 179.518 22.25 180.364 21.4045L182.512 19.2563C183.357 18.4106 184.728 18.4477 185.574 19.2932C186.419 20.1387 186.419 21.5095 185.574 22.355L183.426 24.5032ZM180.335 21.4122C179.489 22.2577 178.118 22.2209 177.273 21.3754C176.427 20.5299 176.427 19.159 177.273 18.3136L179.421 16.1653C180.267 15.3199 181.637 15.3568 182.483 16.2023C183.328 17.0478 183.328 18.4187 182.483 19.264L180.335 21.4122Z" stroke="#E1AF53" stroke-width="1.71192" stroke-linecap="round"/>
</svg>
